<?xml version="1.0" standalone="no"?>
<!DOCTYPE svg PUBLIC "-//W3C//DTD SVG 20010904//EN"
 "http://www.w3.org/TR/2001/REC-SVG-20010904/DTD/svg10.dtd">
<svg version="1.0" xmlns="http://www.w3.org/2000/svg"
 width="500.000000pt" height="500.000000pt" viewBox="0 0 500.000000 500.000000"
 preserveAspectRatio="xMidYMid meet">
<metadata>
Created by potrace 1.14, written by Peter Selinger 2001-2017
</metadata>
<g transform="translate(0.000000,500.000000) scale(0.100000,-0.100000)"
fill="#000000" stroke="none">
<path d="M0 2500 l0 -2500 2500 0 2500 0 0 2500 0 2500 -2500 0 -2500 0 0
-2500z m2534 1672 c33 -68 31 -92 -7 -110 -22 -11 -32 -11 -54 0 -15 7 -29 22
-31 32 -4 19 46 136 58 136 3 0 19 -26 34 -58z m-34 -142 c8 0 27 7 42 14 25
13 29 13 38 -4 26 -50 -8 -90 -76 -90 -25 0 -54 4 -64 10 -23 12 -34 55 -20
80 9 17 12 18 38 4 15 -7 34 -14 42 -14z m-3 -98 c34 -2 70 1 81 7 18 10 22 7
32 -25 20 -58 17 -102 -8 -127 -20 -19 -33 -22 -102 -22 -68 0 -83 3 -101 21
-24 25 -28 73 -9 129 9 28 16 35 29 29 9 -4 44 -10 78 -12z m-56 -194 c45 -9
72 -9 126 1 68 12 68 12 90 -14 33 -38 39 -72 18 -95 -23 -26 -29 -25 -43 5
-39 84 -211 86 -262 3 -17 -28 -17 -28 -40 -10 -27 22 -23 52 11 95 24 31 24
31 100 15z m-169 -65 c9 -10 19 -28 23 -41 3 -12 19 -29 35 -37 27 -14 29 -13
55 20 64 84 178 88 226 7 13 -21 24 -38 25 -40 1 -2 18 7 38 20 21 14 36 32
38 47 3 26 32 50 45 37 17 -17 7 -112 -16 -157 -28 -54 -69 -99 -91 -99 -9 0
-22 -11 -28 -24 -10 -23 -13 -24 -54 -14 -24 5 -75 7 -115 3 -66 -6 -72 -5
-78 14 -3 12 -14 21 -24 21 -36 0 -100 95 -114 168 -7 35 1 92 13 92 4 0 14
-8 22 -17z m333 -309 c23 -9 18 -33 -10 -46 -22 -10 -29 -8 -54 16 -31 29 -57
29 -81 1 -7 -8 -22 -15 -34 -15 -58 1 -56 46 2 53 42 5 154 -1 177 -9z m-310
-34 c56 0 125 -38 125 -68 0 -49 -40 -83 -54 -47 -4 12 -11 13 -31 5 -24 -9
-27 -7 -37 20 -9 28 -14 30 -58 30 -45 0 -48 1 -54 31 -13 66 -11 69 31 48 21
-10 55 -19 78 -19z m521 -13 c-8 -49 -25 -61 -76 -50 -24 4 -29 1 -38 -26 -10
-28 -13 -30 -36 -21 -20 7 -27 6 -35 -8 -15 -26 -45 -2 -49 39 -2 31 1 36 40
57 24 12 61 22 83 22 22 0 56 8 75 18 19 10 37 17 39 15 2 -1 0 -22 -3 -46z
m-278 -27 c46 -68 7 -130 -65 -104 -43 15 -44 65 -2 118 26 32 37 30 67 -14z
m-276 -108 l-4 -57 -59 0 c-32 0 -59 3 -59 7 0 3 9 30 20 60 l21 53 42 -3 42
-4 -3 -56z m484 14 c-3 -30 -11 -77 -18 -105 -13 -57 -10 -56 -95 -20 -42 18
-43 19 -43 68 0 41 3 49 15 45 8 -4 22 -1 30 6 8 7 26 10 40 7 21 -3 29 1 41
24 24 47 38 36 30 -25z m92 -4 c12 -32 22 -60 22 -62 0 -3 -22 -3 -49 -2 l-50
4 6 51 c6 49 16 67 38 67 6 0 20 -26 33 -58z m-470 -5 c7 -5 20 -6 30 -3 16 5
17 1 14 -31 -2 -21 -7 -47 -12 -58 -5 -11 -8 -33 -7 -50 2 -28 0 -30 -39 -33
l-42 -3 -11 68 c-7 37 -14 80 -17 94 -4 24 -2 25 33 25 21 -1 44 -5 51 -9z
m202 -61 c0 -32 -3 -37 -17 -31 -10 4 -39 12 -65 18 -38 9 -48 16 -48 32 0 18
7 20 65 20 l65 0 0 -39z m296 -38 c20 -20 30 -159 14 -198 -25 -59 -64 -64
-162 -18 -51 23 -67 35 -63 47 3 8 9 34 12 58 3 24 8 43 12 43 3 -1 25 -5 49
-9 44 -9 68 2 32 14 -18 6 -20 12 -14 38 3 18 9 36 11 41 8 12 93 0 109 -16z
m-596 -7 c15 -29 12 -68 -5 -75 -32 -12 -14 -25 28 -20 l42 6 1 -56 c1 -64 0
-64 -119 -68 -62 -3 -71 -1 -88 21 -22 27 -26 111 -8 174 l10 37 64 0 c53 0
66 -3 75 -19z m278 -16 c52 -24 53 -26 47 -57 -10 -45 -14 -50 -34 -42 -9 3
-43 9 -76 13 l-60 6 -5 48 c-4 26 -4 50 -1 52 12 13 82 2 129 -20z m100 -77
c-6 -55 -17 -72 -42 -62 -11 4 -15 12 -10 23 4 9 9 35 12 57 3 36 7 41 24 36
18 -4 20 -11 16 -54z m-248 -32 c0 -19 4 -46 10 -60 8 -22 7 -26 -9 -26 -10 0
-23 6 -29 13 -30 38 -25 107 8 107 16 0 20 -7 20 -34z m165 -26 c19 -17 23
-29 18 -49 -3 -14 -7 -28 -9 -30 -1 -2 -30 0 -64 4 -65 7 -72 14 -85 74 l-7
34 61 -5 c46 -3 67 -10 86 -28z m98 -53 c18 -8 38 -22 46 -31 13 -15 13 -19 0
-27 -18 -11 -119 -12 -119 -1 0 12 30 72 36 72 3 0 19 -6 37 -13z m-253 -47
c0 -17 -7 -20 -52 -20 -29 0 -59 4 -67 9 -26 17 1 31 60 31 52 0 59 -2 59 -20z
m123 -5 c27 -4 37 -11 35 -22 -2 -12 -18 -16 -66 -17 -61 -1 -62 -1 -62 26 0
24 3 27 28 23 15 -2 44 -7 65 -10z m-150 -42 c26 3 27 2 27 -41 l0 -45 -72 6
c-108 8 -112 11 -88 57 l19 38 43 -10 c24 -5 55 -8 71 -5z m367 -22 c24 -48
20 -50 -87 -58 l-73 -6 0 45 c0 43 1 44 28 41 20 -3 88 7 109 16 2 1 12 -17
23 -38z m-190 -8 c4 -4 4 -18 -1 -31 -8 -21 -14 -23 -61 -20 -49 3 -53 5 -56
30 -2 18 2 28 15 31 24 7 94 1 103 -10z m-192 -83 l43 0 -3 -52 -3 -53 -65 -3
c-66 -3 -137 16 -160 43 -9 10 -5 22 15 53 l26 39 51 -14 c29 -7 72 -13 96
-13z m437 -10 c22 -32 25 -43 16 -54 -23 -28 -94 -47 -161 -44 l-65 3 -3 53
-3 52 48 1 c37 0 132 19 139 28 1 0 14 -17 29 -39z m-239 -362 c-5 -262 -11
-391 -19 -408 -14 -30 -53 -37 -82 -16 -19 14 -20 28 -23 410 l-3 396 67 0 67
0 -7 -382z m-238 235 l83 -5 -3 -62 -3 -61 -62 -3 c-46 -2 -75 2 -108 17 -42
19 -45 22 -45 60 0 57 9 74 34 66 11 -4 58 -10 104 -12z m476 1 c3 -9 6 -33 6
-55 0 -37 -3 -41 -42 -59 -42 -19 -130 -26 -162 -14 -12 5 -16 21 -16 65 l0
59 68 1 c37 1 78 5 92 9 38 12 47 11 54 -6z m-464 -162 c32 1 56 0 54 -4 -7
-11 -132 -48 -160 -48 -26 0 -44 26 -44 64 l0 25 46 -20 c33 -15 62 -20 104
-17z m459 -38 c-6 -8 -22 -14 -34 -14 -28 0 -152 38 -159 48 -2 4 28 7 68 7
46 1 82 7 101 17 l30 16 3 -29 c2 -17 -2 -37 -9 -45z m-54 -37 c43 -2 45 -3
44 -32 -1 -16 2 -39 6 -51 6 -18 0 -24 -36 -38 -50 -20 -106 -14 -144 16 -22
17 -25 27 -25 88 l0 69 55 -25 c30 -14 75 -26 100 -27z m-335 -21 c0 -57 -3
-67 -25 -84 -38 -30 -94 -36 -144 -16 -36 14 -42 20 -36 38 4 12 7 35 6 53 -1
24 3 31 13 27 17 -7 137 23 150 36 25 25 36 9 36 -54z m0 -232 c0 -115 0 -115
-22 -109 -13 4 -43 20 -68 36 l-45 28 0 71 0 70 35 1 c19 0 44 4 55 9 44 19
45 16 45 -106z m270 99 l45 -5 0 -69 0 -70 -45 -28 c-25 -16 -55 -32 -67 -36
-23 -6 -23 -6 -23 110 0 117 0 117 23 110 12 -3 42 -9 67 -12z m-432 -177 c87
-90 83 -116 -18 -116 -86 0 -120 29 -105 88 8 32 43 92 54 92 4 0 36 -29 69
-64z m597 41 c24 -37 38 -85 31 -110 -7 -30 -45 -47 -106 -47 -62 0 -80 7 -80
32 0 19 114 148 131 148 5 0 15 -10 24 -23z m-444 -107 c5 0 9 -9 9 -19 0 -21
-19 -31 -56 -31 -20 0 -24 5 -24 30 0 21 -12 43 -37 72 l-38 41 68 -46 c38
-26 72 -47 78 -47z m306 52 c-27 -28 -37 -46 -37 -70 0 -27 -4 -32 -24 -32
-63 0 -76 36 -23 62 17 9 50 30 72 47 53 41 57 39 12 -7z m-1466 -308 c35 -18
68 -82 69 -132 0 -76 -51 -142 -110 -142 -69 0 -110 55 -110 148 0 55 29 108
70 129 33 17 45 16 81 -3z m1536 -1 c30 -14 36 -14 44 -2 6 9 9 -5 9 -41 l0
-55 -18 34 c-26 52 -61 75 -96 62 -24 -10 -27 -16 -24 -48 3 -35 6 -38 68 -63
70 -29 94 -57 84 -100 -3 -14 -13 -33 -21 -42 -21 -23 -81 -23 -112 -1 -23 15
-25 15 -37 -2 -12 -17 -14 -11 -14 46 l1 64 15 -35 c23 -54 53 -80 91 -80 45
0 73 39 51 73 -9 12 -38 30 -66 40 -53 19 -76 38 -86 73 -9 30 10 73 36 84 32
12 36 12 75 -7z m-1344 -3 c-21 -9 -23 -15 -23 -99 0 -90 11 -139 33 -153 24
-16 76 -8 97 14 17 19 20 35 20 125 0 98 -1 104 -22 113 -19 7 -13 9 27 9 48
1 49 0 27 -15 -20 -14 -22 -23 -22 -116 0 -91 -2 -104 -22 -125 -16 -18 -32
-23 -67 -23 -83 1 -101 32 -101 169 0 95 -1 100 -22 104 -13 2 4 5 37 5 45 1
54 -2 38 -8z m556 -47 c-1 -56 -1 -57 -11 -23 -13 46 -35 70 -65 70 l-24 0 3
-127 c3 -126 3 -127 28 -134 16 -4 -2 -7 -45 -7 -43 0 -61 3 -45 7 25 7 25 8
28 134 l3 127 -24 0 c-30 0 -52 -24 -65 -70 -10 -34 -10 -33 -11 23 l-1 57
115 0 115 0 -1 -57z m92 -10 c0 -38 0 -97 -1 -132 -1 -44 3 -67 12 -72 8 -5
-4 -8 -32 -8 -25 1 -37 3 -27 6 15 4 17 19 17 133 0 114 -2 129 -17 133 -10 3
-3 5 15 6 l32 1 1 -67z m1289 -63 c0 -112 2 -130 18 -139 14 -9 13 -10 -10
-11 -20 0 -28 5 -28 17 0 15 -2 14 -20 -2 -64 -58 -134 80 -73 147 9 10 22 18
30 18 12 0 11 -3 -2 -16 -23 -24 -17 -132 8 -148 15 -9 22 -6 39 14 26 31 21
116 -8 137 -10 7 -13 13 -8 13 6 0 15 -5 22 -12 9 -9 12 1 12 44 0 51 -2 57
-22 61 -17 3 -14 5 10 6 l32 1 0 -130z m-890 100 c0 -11 -7 -20 -15 -20 -8 0
-15 9 -15 20 0 11 7 20 15 20 8 0 15 -9 15 -20z m483 -71 c22 -2 22 -2 0 -6
-21 -4 -23 -10 -23 -79 0 -66 2 -74 19 -74 11 0 22 5 24 10 3 6 4 5 3 -2 -4
-21 -34 -34 -53 -22 -14 9 -19 28 -21 88 -2 57 -6 76 -17 76 -9 0 -6 8 10 25
14 13 26 32 27 42 1 10 3 1 5 -19 3 -31 8 -38 26 -39z m935 0 l27 -2 -28 -4
c-28 -4 -28 -4 -25 -76 3 -68 4 -72 26 -71 12 0 21 -4 19 -10 -2 -6 -17 -11
-33 -11 l-29 0 -3 83 c-2 64 -6 82 -17 82 -11 0 -10 5 5 20 11 11 21 30 22 43
1 12 3 5 5 -15 4 -33 8 -38 31 -39z m-1778 -3 c0 -2 -7 -7 -16 -10 -8 -3 -12
-2 -9 4 6 10 25 14 25 6z m48 -8 c7 -7 12 -40 12 -80 0 -53 4 -69 18 -77 13
-8 7 -10 -28 -10 -35 0 -41 2 -27 10 23 14 25 130 1 153 -12 13 -12 16 -2 16
8 0 19 -5 26 -12z m113 -2 c-8 -10 -9 -16 -1 -21 5 -3 10 -10 10 -16 0 -12
-27 -12 -35 1 -8 12 12 50 27 50 7 0 7 -4 -1 -14z m76 2 c4 -7 10 -44 13 -83
4 -51 9 -69 18 -67 8 1 11 -2 7 -8 -9 -14 -26 -12 -45 5 -15 14 -18 14 -30 0
-27 -32 -80 -12 -80 31 0 26 16 40 55 49 l30 7 -25 -14 c-30 -16 -39 -62 -14
-72 33 -13 54 22 54 90 0 40 -4 64 -12 67 -8 3 -7 6 4 6 9 1 20 -5 25 -11z
m123 -72 c0 -58 4 -86 13 -89 6 -3 -6 -5 -28 -5 -22 0 -34 2 -27 5 8 3 12 30
12 83 0 53 -4 80 -12 83 -7 3 -1 6 15 6 l27 1 0 -84z m590 15 c0 -38 3 -76 6
-85 9 -23 40 -20 58 6 20 28 22 134 4 141 -7 3 -1 6 15 6 l27 1 0 -84 c0 -58
4 -86 13 -89 6 -3 0 -6 -15 -6 -20 -1 -28 4 -28 16 0 15 -2 15 -19 -1 -26 -23
-63 -17 -78 14 -7 14 -13 51 -13 82 0 36 -5 58 -12 61 -7 3 -1 6 15 6 27 1 27
1 27 -68z m416 53 c-9 -8 -16 -26 -16 -40 0 -21 5 -24 35 -24 32 0 35 3 35 28
0 15 -5 33 -12 40 -13 13 0 16 19 4 15 -10 35 -61 27 -73 -3 -5 -27 -9 -55 -9
-43 0 -49 -3 -49 -21 0 -54 44 -77 82 -42 22 20 24 11 2 -11 -22 -23 -64 -20
-91 6 -31 29 -32 104 -3 136 12 12 25 22 31 22 6 0 3 -7 -5 -16z m174 0 c0 -8
5 -12 11 -8 8 5 8 1 0 -14 -15 -29 -14 -129 2 -135 6 -3 -6 -6 -28 -6 -32 0
-36 2 -22 10 13 8 17 24 17 79 0 55 -4 71 -17 79 -15 9 -14 10 10 11 18 0 27
-5 27 -16z m100 -10 c6 -14 10 -52 10 -84 0 -37 4 -60 13 -63 6 -3 -6 -5 -28
-5 -22 0 -34 2 -27 5 16 6 17 144 0 161 -9 9 -8 12 5 12 10 0 22 -12 27 -26z
m-2027 -359 c34 -95 47 -122 67 -132 22 -11 18 -13 -40 -12 -49 0 -59 2 -42 9
26 11 26 11 10 45 -10 22 -18 25 -58 25 -41 0 -49 -3 -54 -22 -9 -35 -8 -38
17 -48 17 -7 10 -9 -33 -9 -46 0 -51 2 -33 11 15 7 31 35 49 87 59 165 67 186
71 176 3 -5 23 -64 46 -130z m863 114 c10 -17 -13 -36 -27 -22 -12 12 -4 33
11 33 5 0 12 -5 16 -11z m430 0 c10 -17 -13 -36 -27 -22 -12 12 -4 33 11 33 5
0 12 -5 16 -11z m-108 -80 l27 -2 -27 -4 c-27 -4 -28 -6 -28 -72 0 -73 13 -99
38 -78 12 10 14 9 10 -3 -3 -9 -17 -15 -34 -15 l-29 0 -3 83 c-2 69 -5 82 -20
82 -13 0 -12 3 6 16 12 8 23 27 24 42 1 19 3 16 5 -10 4 -33 8 -38 31 -39z
m-1035 -6 c-29 -11 -13 -43 34 -66 58 -28 71 -47 55 -81 -13 -28 -47 -35 -84
-15 -16 9 -23 8 -29 -2 -6 -9 -9 0 -9 26 l0 39 28 -33 c31 -38 75 -41 80 -6 2
16 -10 26 -53 48 -43 21 -55 32 -55 50 0 24 17 48 35 46 5 0 4 -3 -2 -6z m75
-8 c2 -2 2 -9 0 -17 -2 -9 -10 -6 -26 10 l-23 24 23 -7 c13 -4 25 -9 26 -10z
m88 -1 c-21 -20 -14 -30 41 -57 58 -28 71 -47 55 -81 -13 -28 -47 -35 -84 -15
-16 9 -23 8 -29 -2 -6 -9 -9 0 -9 26 1 37 2 39 15 20 29 -40 37 -46 63 -43 18
2 28 10 30 24 2 16 -8 25 -50 45 -39 17 -54 30 -56 47 -4 24 13 52 30 52 5 0
2 -7 -6 -16z m82 1 c2 -2 2 -9 0 -17 -2 -9 -10 -6 -26 10 l-23 24 23 -7 c13
-4 25 -9 26 -10z m109 -3 c-20 -22 -23 -122 -5 -140 7 -7 22 -12 35 -12 17 0
24 8 33 39 12 46 4 101 -18 119 -10 7 -11 12 -4 12 18 0 51 -36 58 -65 15 -59
-26 -118 -78 -113 -65 6 -95 103 -47 154 26 28 51 33 26 6z m189 -4 c-18 -25
-21 -100 -6 -129 14 -26 55 -24 74 3 9 12 16 18 16 14 0 -20 -35 -46 -61 -46
-37 0 -69 41 -69 90 0 23 8 48 21 64 25 32 47 35 25 4z m72 10 c24 -24 8 -69
-18 -53 -8 5 -7 12 2 22 10 12 9 18 -7 29 -14 11 -15 14 -4 14 8 0 20 -5 27
-12z m92 -68 c0 -65 3 -81 18 -89 13 -8 7 -10 -28 -10 -25 1 -37 3 -27 6 14 4
17 17 17 83 0 66 -3 79 -17 83 -11 3 -7 5 10 6 l27 1 0 -80z m104 65 c-15 -12
-16 -16 -5 -24 7 -5 10 -14 6 -20 -5 -9 -10 -9 -20 -1 -21 17 0 59 29 60 6 0
1 -7 -10 -15z m66 5 c10 -6 17 -32 20 -82 4 -53 9 -72 18 -70 8 1 11 -2 7 -8
-9 -15 -29 -12 -45 8 -10 12 -14 35 -12 75 2 35 -2 64 -9 73 -13 16 -1 18 21
4z m270 -74 c0 -58 4 -86 13 -89 6 -3 -6 -5 -28 -5 -22 0 -34 2 -27 5 8 3 12
30 12 83 0 53 -4 80 -12 83 -7 3 -1 6 15 6 l27 1 0 -84z m106 62 c-18 -25 -21
-100 -6 -129 16 -30 58 -25 71 9 15 38 5 113 -17 129 -14 11 -15 13 -2 13 40
0 69 -78 48 -130 -35 -85 -140 -55 -140 40 0 23 8 48 21 64 25 32 47 35 25 4z
m190 11 c4 -8 9 -8 17 0 15 15 60 14 75 -1 7 -7 12 -41 12 -84 0 -61 3 -73 18
-77 9 -3 -3 -5 -28 -5 -25 0 -39 2 -32 5 8 3 12 30 12 84 0 77 -1 79 -25 79
-14 0 -29 -8 -35 -19 -15 -28 -13 -138 3 -144 6 -3 -6 -5 -28 -5 -22 0 -34 2
-27 5 8 3 12 30 12 83 0 53 -4 80 -12 83 -7 3 -3 6 9 6 12 1 25 -4 29 -10z
m-604 -76 c-43 -8 -54 -76 -14 -86 10 -3 7 -5 -9 -6 -33 -1 -53 22 -45 52 6
26 39 46 71 45 17 -1 16 -1 -3 -5z"/>
<path d="M2395 3588 c-2 -7 -6 -34 -10 -59 -5 -37 -2 -48 14 -63 23 -21 61
-13 61 12 0 11 3 13 8 6 4 -7 23 -11 42 -10 19 1 41 -4 48 -11 19 -18 36 -16
56 5 13 15 15 29 9 73 -9 59 -23 67 -37 20 -5 -17 -15 -31 -22 -31 -8 0 -14
-8 -15 -17 0 -11 -3 -13 -6 -5 -2 7 -22 12 -44 12 -44 0 -79 27 -79 60 0 22
-18 27 -25 8z m30 -98 c3 -5 2 -10 -4 -10 -5 0 -13 5 -16 10 -3 6 -2 10 4 10
5 0 13 -4 16 -10z m175 -5 c-7 -9 -15 -13 -17 -11 -7 7 7 26 19 26 6 0 6 -6
-2 -15z"/>
<path d="M2477 3593 c-16 -16 -6 -43 19 -49 30 -8 60 16 51 40 -6 16 -57 23
-70 9z"/>
<path d="M1172 1640 c-30 -13 -42 -48 -42 -131 0 -96 18 -129 71 -129 49 0 64
32 64 132 0 86 -1 91 -28 114 -31 26 -32 27 -65 14z"/>
<path d="M1666 1220 c-3 -8 -12 -34 -20 -57 l-15 -43 40 0 c44 0 44 -4 14 80
-9 24 -15 30 -19 20z"/>
</g>
</svg>
